<svg xmlns="http://www.w3.org/2000/svg" xmlns:xlink="http://www.w3.org/1999/xlink" width="48" height="48" id="fire">
  <defs>
    <linearGradient xlink:href="#a" id="b" x1="906.952" x2="931.379" y1="515.915" y2="546.094" gradientTransform="translate(-798.499 -657.644)scale(1.53785)" gradientUnits="userSpaceOnUse"></linearGradient>
    <linearGradient id="a">
      <stop offset="0" stop-color="#ffd800"></stop>
      <stop offset="1" stop-color="#ff6100"></stop>
    </linearGradient>
  </defs>
  <g transform="translate(-590.22 -135.376)">
    <rect width="48" height="48" x="590.22" y="135.376" fill="url(#b)" rx="10.144" ry="10.144"></rect>
    <path fill="#fff" fill-rule="evenodd" d="M617.3 143.686c-4.962 2.058-7.165 5.745-8.086 9.076-.963 3.485-.564 6.47-.564 6.47.11.657-.876.823-.987.165 0 0-.134-.702-.789-1.648-.558-.808-1.611-1.726-3.16-2.477a8.773 8.773 0 0 1-.369 2.895c-.396 1.353-.958 2.77-1.371 4.232-.81 2.87-1.056 5.835 1.543 8.983h4.32c-.777-2.64-.47-5.048.668-7.579 1.236-2.748 3.402-5.681 6.182-9.492a.5.5 0 0 1 .902.25c.124 1.364.336 2.164.574 2.7.239.535.504.827.829 1.218.324.392.695.878.986 1.67.135.367.195 1.125.299 1.649.443-1.16.91-2.084 1.47-2.635.832-.82 1.788-1.066 2.797-1.338a.5.5 0 0 1 .623.566c-.485 2.857.245 4.878.508 6.975.233 1.861-.008 3.778-1.885 6.016h2.9c2.87-5.107 3.039-8.568 2.518-11.61-.483-2.825-1.488-5.393-1.53-8.43-1.926.735-3.46 2.3-4.995 4.973-.297.512-1.08.175-.912-.392.593-1.973.703-3.326.57-4.338-.133-1.013-.502-1.706-.969-2.416-.846-1.29-1.982-2.714-2.072-5.483zm-2.455 12.125c-2.426 3.33-4.366 6.043-5.428 8.403-1.112 2.473-1.306 4.638-.482 7.168h11.473c2.282-2.365 2.512-4 2.275-5.891-.217-1.734-.751-3.797-.51-6.41-.634.194-1.26.338-1.724.795-.634.623-1.243 1.759-1.842 4.006-.144.547-.943.472-.983-.092-.124-1.624-.34-2.627-.586-3.295-.245-.669-.509-1.008-.816-1.38-.307-.37-.674-.777-.973-1.448-.183-.413-.28-1.195-.404-1.856zm-15.625 16.565v1h30v-1h-30z" color="#000" font-family="sans-serif" font-weight="400" overflow="visible" style="line-height:normal;text-indent:0;text-align:start;text-decoration-line:none;text-decoration-style:solid;text-decoration-color:#000;text-transform:none;block-progression:tb;isolation:auto;mix-blend-mode:normal"></path>
  </g>
</svg>
